<svg width="16" height="24" viewBox="0 0 16 24" fill="none" xmlns="http://www.w3.org/2000/svg">
<path d="M12.0459 1.5C12.4437 1.5 12.8253 1.65804 13.1066 1.93934C13.3879 2.22064 13.5459 2.60218 13.5459 3V21C13.5459 21.3978 13.3879 21.7794 13.1066 22.0607C12.8253 22.342 12.4437 22.5 12.0459 22.5H3.0459C2.64807 22.5 2.26654 22.342 1.98524 22.0607C1.70393 21.7794 1.5459 21.3978 1.5459 21V3C1.5459 2.60218 1.70393 2.22064 1.98524 1.93934C2.26654 1.65804 2.64807 1.5 3.0459 1.5H12.0459ZM3.0459 0C2.25025 0 1.48719 0.316071 0.924578 0.87868C0.361969 1.44129 0.0458984 2.20435 0.0458984 3V21C0.0458984 21.7956 0.361969 22.5587 0.924578 23.1213C1.48719 23.6839 2.25025 24 3.0459 24H12.0459C12.8415 24 13.6046 23.6839 14.1672 23.1213C14.7298 22.5587 15.0459 21.7956 15.0459 21V3C15.0459 2.20435 14.7298 1.44129 14.1672 0.87868C13.6046 0.316071 12.8415 0 12.0459 0L3.0459 0Z" fill="#7A7A7A"/>
<path d="M7.54578 21C7.9436 21 8.32513 20.842 8.60644 20.5607C8.88774 20.2794 9.04578 19.8978 9.04578 19.5C9.04578 19.1022 8.88774 18.7206 8.60644 18.4393C8.32513 18.158 7.9436 18 7.54578 18C7.14795 18 6.76642 18.158 6.48512 18.4393C6.20381 18.7206 6.04578 19.1022 6.04578 19.5C6.04578 19.8978 6.20381 20.2794 6.48512 20.5607C6.76642 20.842 7.14795 21 7.54578 21Z" fill="#7A7A7A"/>
</svg>
