<svg width="18" height="16" viewBox="0 0 18 16" fill="none" xmlns="http://www.w3.org/2000/svg">
<path fill-rule="evenodd" clip-rule="evenodd" d="M1.82074 2.78286C1.45941 3.25711 1.22078 3.9206 1.22078 4.8831C1.22078 5.45834 1.28496 5.8259 1.36673 6.04785C1.44494 6.26011 1.51723 6.28632 1.51843 6.28675C1.5304 6.29188 1.59752 6.31406 1.76928 6.2568C1.9392 6.20016 2.15022 6.08506 2.39196 5.91238C2.8738 5.56821 3.37385 5.07132 3.76473 4.64321C3.95731 4.43229 4.11788 4.24419 4.22994 4.10925C4.2859 4.04188 4.32955 3.98801 4.35884 3.95147C4.37348 3.93321 4.38451 3.9193 4.39167 3.91022L4.39948 3.90029L4.40115 3.89816C4.51679 3.74956 4.6948 3.66233 4.8831 3.66233H12.2078C12.3961 3.66233 12.5738 3.74924 12.6895 3.89784L12.6914 3.90029L12.6992 3.91022C12.7063 3.9193 12.7174 3.93321 12.732 3.95147C12.7613 3.98801 12.805 4.04188 12.8609 4.10925C12.973 4.24419 13.1335 4.43229 13.3261 4.64321C13.717 5.07132 14.2171 5.56821 14.6989 5.91238C14.9406 6.08506 15.1516 6.20016 15.3216 6.2568C15.4933 6.31406 15.5604 6.29189 15.5724 6.28676C15.5736 6.28632 15.6459 6.26009 15.7241 6.04785C15.8059 5.8259 15.8701 5.45834 15.8701 4.8831C15.8701 3.9206 15.6314 3.25711 15.2701 2.78286C14.9052 2.30392 14.3717 1.96105 13.6847 1.7206C12.2769 1.22789 10.4088 1.22078 8.54543 1.22078C6.68201 1.22078 4.81391 1.22789 3.40618 1.7206C2.71918 1.96105 2.18566 2.30392 1.82074 2.78286ZM11.9167 4.8831C11.9184 4.88513 11.9201 4.88716 11.9218 4.88921C12.0434 5.03562 12.2166 5.23855 12.4246 5.46634C12.8349 5.91567 13.403 6.48695 13.9893 6.90577C14.2817 7.11458 14.6047 7.30467 14.9355 7.41493C15.2645 7.52458 15.6647 7.57537 16.0533 7.40882C16.4537 7.23722 16.7147 6.89029 16.8696 6.46987C17.0215 6.05759 17.0909 5.52864 17.0909 4.8831C17.0909 3.70925 16.7954 2.77048 16.2412 2.04302C15.6905 1.32027 14.9269 0.862001 14.088 0.568361C12.4636 -0.000180964 10.3948 -8.26939e-05 8.61052 2.07605e-06H8.48033C6.69603 -8.26939e-05 4.6273 -0.000180964 3.00289 0.568361C2.16392 0.862001 1.40037 1.32027 0.849701 2.04302C0.29545 2.77048 0 3.70925 0 4.8831C0 5.52864 0.0693351 6.05759 0.221228 6.46987C0.376116 6.89029 0.63714 7.23722 1.03756 7.40882C1.42615 7.57537 1.82637 7.52458 2.15532 7.41493C2.48611 7.30467 2.80918 7.11458 3.10153 6.90577C3.68787 6.48695 4.256 5.91567 4.66625 5.46634C4.87424 5.23855 5.04747 5.03562 5.16907 4.88921C5.17077 4.88716 5.17246 4.88513 5.17414 4.8831H11.9167ZM5.06188 5.67227C5.17635 5.5578 5.3316 5.49349 5.49349 5.49349H11.5974C11.7592 5.49349 11.9145 5.5578 12.029 5.67227L11.5974 6.10388C12.029 5.67227 12.0288 5.67206 12.029 5.67227L12.0311 5.67436L12.0342 5.67758L12.0439 5.68741C12.0517 5.69548 12.0624 5.70656 12.0756 5.72064C12.1022 5.74879 12.1393 5.78894 12.1853 5.84095C12.2775 5.94494 12.4058 6.09648 12.558 6.29442C12.8624 6.6901 13.2636 7.2725 13.6635 8.03225C14.4637 9.55275 15.2597 11.7861 15.2597 14.6493C15.2597 14.9864 14.9864 15.2597 14.6493 15.2597H2.44155C2.10444 15.2597 1.83116 14.9864 1.83116 14.6493C1.83116 11.7861 2.62711 9.55275 3.42738 8.03225C3.82725 7.2725 4.22845 6.6901 4.53282 6.29442C4.68507 6.09648 4.81336 5.94494 4.9055 5.84095C4.95159 5.78894 4.98866 5.74879 5.01522 5.72064C5.0285 5.70656 5.03916 5.69548 5.04699 5.68741L5.05662 5.67758L5.0598 5.67436L5.06098 5.67317L5.06188 5.67227C5.06209 5.67206 5.06188 5.67227 5.49349 6.10388L5.06188 5.67227ZM5.7636 6.71427C5.69376 6.79546 5.60422 6.90381 5.50043 7.03874C5.23256 7.38697 4.87078 7.9109 4.50766 8.60082C3.83911 9.87107 3.16689 11.7019 3.06516 14.0389H14.0257C13.924 11.7019 13.2517 9.87107 12.5832 8.60082C12.2201 7.9109 11.8583 7.38697 11.5904 7.03874C11.4866 6.90381 11.3971 6.79546 11.3273 6.71427H5.7636ZM5.92594 6.53465C5.92607 6.53451 5.92616 6.53442 5.92594 6.53465V6.53465Z" fill="#7A7A7A"/>
<path fill-rule="evenodd" clip-rule="evenodd" d="M8.54522 8.54548C7.5339 8.54548 6.71406 9.36532 6.71406 10.3766C6.71406 11.388 7.5339 12.2078 8.54522 12.2078C9.55655 12.2078 10.3764 11.388 10.3764 10.3766C10.3764 9.36532 9.55655 8.54548 8.54522 8.54548ZM5.49329 10.3766C5.49329 8.69111 6.85969 7.32471 8.54522 7.32471C10.2308 7.32471 11.5972 8.69111 11.5972 10.3766C11.5972 12.0622 10.2308 13.4286 8.54522 13.4286C6.85969 13.4286 5.49329 12.0622 5.49329 10.3766Z" fill="#7A7A7A"/>
</svg>
