<svg width="17" height="24" viewBox="0 0 17 24" fill="none" xmlns="http://www.w3.org/2000/svg">
<path fill-rule="evenodd" clip-rule="evenodd" d="M8.04573 5.6C6.70683 5.6 5.62144 6.67452 5.62144 8C5.62144 9.32548 6.70683 10.4 8.04573 10.4C9.38462 10.4 10.47 9.32548 10.47 8C10.47 6.67452 9.38462 5.6 8.04573 5.6ZM4.00525 8C4.00525 5.79086 5.81423 4 8.04573 4C10.2772 4 12.0862 5.79086 12.0862 8C12.0862 10.2091 10.2772 12 8.04573 12C5.81423 12 4.00525 10.2091 4.00525 8Z" fill="#7A7A7A"/>
<path fill-rule="evenodd" clip-rule="evenodd" d="M8.0459 1.6C3.74382 1.6 0.141241 5.84304 2.32389 10.8849C3.51899 13.6455 5.11862 16.6163 6.42612 18.9064C7.06624 20.0275 7.63389 20.9813 8.0459 21.6617C8.4579 20.9813 9.02555 20.0275 9.66568 18.9064C10.9732 16.6163 12.5728 13.6455 13.7679 10.8849C15.9506 5.84304 12.348 1.6 8.0459 1.6ZM8.0459 23.2C7.36063 23.624 7.36054 23.6238 7.36054 23.6238L7.34813 23.6041L7.31295 23.548C7.28218 23.4988 7.23698 23.4264 7.17873 23.3324C7.06225 23.1444 6.89357 22.8703 6.68376 22.5241C6.26421 21.8319 5.67978 20.8508 5.01913 19.6936C3.70032 17.3837 2.06757 14.3545 0.838376 11.5151C-1.82755 5.35696 2.65083 0 8.0459 0C13.441 0 17.9193 5.35696 15.2534 11.5151C14.0242 14.3545 12.3915 17.3837 11.0727 19.6936C10.412 20.8508 9.82758 21.8319 9.40804 22.5241C9.19823 22.8703 9.02955 23.1444 8.91306 23.3324C8.85482 23.4264 8.80962 23.4988 8.77884 23.548L8.74367 23.6041L8.73145 23.6235C8.73145 23.6235 8.73116 23.624 8.0459 23.2ZM8.0459 23.2L8.73145 23.6235C8.58378 23.8574 8.32452 24 8.0459 24C7.76728 24 7.50821 23.8577 7.36054 23.6238L8.0459 23.2Z" fill="#7A7A7A"/>
</svg>
