<svg width="25" height="23" viewBox="0 0 25 23" fill="none" xmlns="http://www.w3.org/2000/svg">
<g clip-path="url(#clip0)">
<path d="M24.9998 19.0658C24.8583 19.3121 24.8712 19.5909 24.7811 19.8567C24.0992 21.8338 22.4844 23.0007 20.4 23.0007C16.8552 23.0007 13.3105 23.0007 9.76568 23.0007C8.02867 23.0007 6.28523 23.0072 4.54823 23.0007C2.97849 22.9942 1.69826 22.3784 0.816888 21.0559C-0.218882 19.5001 -0.270348 17.86 0.649621 16.2394C3.30016 11.5785 5.96357 6.93051 8.64627 2.28902C9.63701 0.577635 11.1553 -0.18082 13.111 0.0460686C14.5843 0.214614 15.6651 1.03141 16.3985 2.30847C19.0554 6.93699 21.706 11.5655 24.3565 16.194C24.646 16.6997 24.8519 17.2377 24.9484 17.8211C24.9548 17.8665 24.9355 17.9249 25.0063 17.9378C24.9998 18.3073 24.9998 18.6833 24.9998 19.0658ZM12.4806 20.9652C15.1247 20.9652 17.7688 20.9717 20.4064 20.9652C22.4201 20.9587 23.6102 18.9685 22.6195 17.2312C19.969 12.5833 17.3056 7.94178 14.6422 3.30029C14.4041 2.87893 14.0889 2.53536 13.6579 2.30847C12.4548 1.67318 11.0781 2.09455 10.3704 3.31974C9.59198 4.66811 8.81997 6.02295 8.04797 7.3778C6.17587 10.632 4.3102 13.8927 2.43166 17.1534C1.89126 18.0934 1.87196 19.0204 2.48313 19.9215C2.98493 20.667 3.72476 20.9652 4.5997 20.9652C7.23094 20.9652 9.85574 20.9652 12.4806 20.9652Z" fill="#D03232"/>
<path d="M13.7611 8.9268C13.6775 10.3465 13.581 12.0579 13.4781 13.7757C13.4652 14.0091 13.4909 14.249 13.4395 14.4888C13.343 14.9556 12.9505 15.2797 12.4873 15.2732C12.0241 15.2667 11.6253 14.9556 11.5738 14.4823C11.503 13.8406 11.4773 13.1923 11.4387 12.5505C11.3551 11.2346 11.2843 9.91863 11.2007 8.60268C11.1299 7.50065 12.1013 6.72923 13.0342 7.16356C13.6518 7.44879 13.8255 7.98684 13.7611 8.9268Z" fill="#D03232"/>
<path d="M11.2329 17.4512C11.2329 16.7446 11.8183 16.1547 12.5196 16.1612C13.2208 16.1677 13.7548 16.7252 13.7676 17.4577C13.7741 18.1578 13.1951 18.7412 12.5003 18.7347C11.8055 18.7283 11.2329 18.1513 11.2329 17.4512Z" fill="#D03232"/>
</g>
<defs>
<clipPath id="clip0">
<rect width="25" height="23" fill="white"/>
</clipPath>
</defs>
</svg>
